<svg width="24" height="24" viewBox="0 0 24 24" fill="none" xmlns="http://www.w3.org/2000/svg">
<path d="M9.08796 17C13.9938 17 16.6767 13.1525 16.6767 9.81583C16.6767 9.70661 16.6767 9.5979 16.6691 9.4897C17.1913 9.13211 17.6419 8.68932 18 8.18209C17.5133 8.38651 16.9969 8.52065 16.4682 8.58001C17.0248 8.26429 17.4414 7.76789 17.6403 7.18317C17.1169 7.47723 16.5442 7.68447 15.9471 7.79596C15.5449 7.39113 15.013 7.12307 14.4337 7.03324C13.8544 6.94341 13.26 7.03683 12.7424 7.29905C12.2249 7.56126 11.813 7.97764 11.5706 8.48377C11.3282 8.9899 11.2687 9.55755 11.4014 10.0989C10.3411 10.0486 9.30371 9.78774 8.35673 9.33331C7.40975 8.87888 6.57429 8.24101 5.90458 7.46111C5.5636 8.017 5.45921 8.67502 5.61268 9.30122C5.76614 9.92741 6.16592 10.4747 6.73063 10.8317C6.30612 10.8197 5.89089 10.7111 5.52 10.5153V10.5476C5.52017 11.1305 5.73331 11.6955 6.12327 12.1466C6.51324 12.5977 7.05602 12.9073 7.65958 13.0228C7.26695 13.1241 6.85504 13.1388 6.45546 13.0659C6.62587 13.5676 6.95764 14.0064 7.40439 14.3208C7.85114 14.6352 8.39053 14.8096 8.94712 14.8196C8.39409 15.231 7.76082 15.5351 7.08355 15.7146C6.40627 15.8941 5.69826 15.9454 5 15.8657C6.21959 16.6069 7.63871 17.0001 9.08796 16.9985" fill="#666666"/>
<rect x="1" y="1" width="22" height="22" rx="11" stroke="#666666" stroke-width="2"/>
</svg>
