<svg width="24" height="24" viewBox="0 0 24 24" fill="none" xmlns="http://www.w3.org/2000/svg">
<path d="M10.088 17C14.9938 17 17.6767 13.1525 17.6767 9.81583C17.6767 9.70661 17.6767 9.5979 17.6691 9.4897C18.1913 9.13211 18.6419 8.68932 19 8.18209C18.5133 8.38651 17.9969 8.52065 17.4682 8.58001C18.0248 8.26429 18.4414 7.76789 18.6403 7.18317C18.1169 7.47723 17.5442 7.68447 16.9471 7.79596C16.5449 7.39113 16.013 7.12307 15.4337 7.03324C14.8544 6.94341 14.26 7.03683 13.7424 7.29905C13.2249 7.56126 12.813 7.97764 12.5706 8.48377C12.3282 8.9899 12.2687 9.55755 12.4014 10.0989C11.3411 10.0486 10.3037 9.78774 9.35673 9.33331C8.40975 8.87888 7.57429 8.24101 6.90458 7.46111C6.5636 8.017 6.45921 8.67502 6.61268 9.30122C6.76614 9.92741 7.16592 10.4747 7.73063 10.8317C7.30612 10.8197 6.89089 10.7111 6.52 10.5153V10.5476C6.52017 11.1305 6.73331 11.6955 7.12327 12.1466C7.51324 12.5977 8.05602 12.9073 8.65958 13.0228C8.26695 13.1241 7.85504 13.1388 7.45546 13.0659C7.62587 13.5676 7.95764 14.0064 8.40439 14.3208C8.85114 14.6352 9.39053 14.8096 9.94712 14.8196C9.39409 15.231 8.76082 15.5351 8.08355 15.7146C7.40627 15.8941 6.69826 15.9454 6 15.8657C7.21959 16.6069 8.63871 17.0001 10.088 16.9985" fill="#262626"/>
<rect x="1" y="1" width="22" height="22" rx="11" stroke="#262626" stroke-width="2"/>
</svg>
