<svg width="650" height="650" viewBox="0 0 650 650" fill="none" xmlns="http://www.w3.org/2000/svg">
<rect width="650" height="650" rx="20" fill="#090808" fill-opacity="0.62"/>
<path d="M37.4634 59L29.1396 29.9091H35.8583L40.6737 50.1222H40.9151L46.2276 29.9091H51.9805L57.2788 50.1648H57.5344L62.3498 29.9091H69.0685L60.7447 59H54.7504L49.2106 39.9801H48.9833L43.4577 59H37.4634ZM72.6468 59V37.1818H78.6979V59H72.6468ZM75.6866 34.3693C74.787 34.3693 74.0152 34.071 73.3712 33.4744C72.7368 32.8684 72.4195 32.1439 72.4195 31.3011C72.4195 30.4678 72.7368 29.7528 73.3712 29.1562C74.0152 28.5502 74.787 28.2472 75.6866 28.2472C76.5862 28.2472 77.3532 28.5502 77.9877 29.1562C78.6317 29.7528 78.9536 30.4678 78.9536 31.3011C78.9536 32.1439 78.6317 32.8684 77.9877 33.4744C77.3532 34.071 76.5862 34.3693 75.6866 34.3693ZM89.9964 46.3864V59H83.9452V37.1818H89.7123V41.0312H89.968C90.4509 39.7623 91.2606 38.7585 92.3969 38.0199C93.5333 37.2718 94.9111 36.8977 96.5305 36.8977C98.0456 36.8977 99.3666 37.2292 100.494 37.892C101.62 38.5549 102.496 39.5019 103.121 40.733C103.746 41.9545 104.059 43.4129 104.059 45.108V59H98.0077V46.1875C98.0172 44.8523 97.6763 43.8106 96.985 43.0625C96.2937 42.3049 95.342 41.9261 94.1299 41.9261C93.3155 41.9261 92.5958 42.1013 91.9708 42.4517C91.3553 42.8021 90.8723 43.3134 90.5219 43.9858C90.181 44.6487 90.0058 45.4489 89.9964 46.3864ZM115.45 59.4119C114.058 59.4119 112.817 59.1705 111.728 58.6875C110.639 58.1951 109.777 57.4706 109.143 56.5142C108.518 55.5483 108.205 54.3456 108.205 52.9062C108.205 51.6941 108.428 50.6761 108.873 49.8523C109.318 49.0284 109.924 48.3655 110.691 47.8636C111.458 47.3617 112.329 46.983 113.305 46.7273C114.29 46.4716 115.322 46.2917 116.401 46.1875C117.67 46.0549 118.693 45.9318 119.47 45.8182C120.246 45.6951 120.809 45.5152 121.16 45.2784C121.51 45.0417 121.685 44.6913 121.685 44.2273V44.142C121.685 43.2424 121.401 42.5464 120.833 42.054C120.274 41.5616 119.479 41.3153 118.447 41.3153C117.358 41.3153 116.491 41.5568 115.847 42.0398C115.203 42.5133 114.777 43.1098 114.569 43.8295L108.972 43.375C109.256 42.0492 109.815 40.9034 110.649 39.9375C111.482 38.9621 112.557 38.214 113.873 37.6932C115.199 37.1629 116.733 36.8977 118.475 36.8977C119.687 36.8977 120.847 37.0398 121.955 37.3239C123.073 37.608 124.062 38.0483 124.924 38.6449C125.795 39.2415 126.482 40.0085 126.984 40.946C127.486 41.8741 127.737 42.9867 127.737 44.2841V59H121.998V55.9744H121.827C121.477 56.6562 121.008 57.2576 120.421 57.7784C119.834 58.2898 119.129 58.6922 118.305 58.9858C117.481 59.2699 116.529 59.4119 115.45 59.4119ZM117.183 55.2358C118.073 55.2358 118.859 55.0606 119.541 54.7102C120.222 54.3504 120.757 53.8674 121.146 53.2614C121.534 52.6553 121.728 51.9687 121.728 51.2017V48.8864C121.539 49.0095 121.278 49.1231 120.947 49.2273C120.625 49.322 120.26 49.4119 119.853 49.4972C119.446 49.5729 119.039 49.6439 118.631 49.7102C118.224 49.767 117.855 49.8191 117.524 49.8665C116.813 49.9706 116.193 50.1364 115.663 50.3636C115.132 50.5909 114.72 50.8987 114.427 51.2869C114.133 51.6657 113.987 52.1392 113.987 52.7074C113.987 53.5312 114.285 54.161 114.881 54.5966C115.488 55.0227 116.255 55.2358 117.183 55.2358ZM132.831 59V37.1818H138.598V41.0312H138.854C139.308 39.7528 140.066 38.7443 141.127 38.0057C142.187 37.267 143.456 36.8977 144.933 36.8977C146.43 36.8977 147.703 37.2718 148.754 38.0199C149.806 38.7585 150.506 39.7623 150.857 41.0312H151.084C151.529 39.7812 152.334 38.7822 153.499 38.0341C154.673 37.2765 156.06 36.8977 157.661 36.8977C159.697 36.8977 161.349 37.5464 162.618 38.8438C163.897 40.1316 164.536 41.9593 164.536 44.3267V59H158.499V45.5199C158.499 44.3078 158.177 43.3987 157.533 42.7926C156.889 42.1866 156.084 41.8835 155.118 41.8835C154.02 41.8835 153.163 42.2339 152.547 42.9347C151.932 43.6259 151.624 44.5398 151.624 45.6761V59H145.757V45.392C145.757 44.322 145.45 43.4697 144.834 42.8352C144.228 42.2008 143.428 41.8835 142.433 41.8835C141.761 41.8835 141.155 42.054 140.615 42.3949C140.085 42.7263 139.664 43.1951 139.351 43.8011C139.039 44.3977 138.882 45.0985 138.882 45.9034V59H132.831ZM169.716 67.1818V37.1818H175.681V40.8466H175.951C176.217 40.2595 176.6 39.6629 177.102 39.0568C177.613 38.4413 178.276 37.9299 179.091 37.5227C179.914 37.1061 180.937 36.8977 182.159 36.8977C183.75 36.8977 185.217 37.3144 186.562 38.1477C187.907 38.9716 188.982 40.2169 189.787 41.8835C190.592 43.5407 190.994 45.6193 190.994 48.1193C190.994 50.553 190.601 52.608 189.815 54.2841C189.038 55.9508 187.978 57.215 186.633 58.0767C185.298 58.929 183.802 59.3551 182.145 59.3551C180.97 59.3551 179.971 59.161 179.147 58.7727C178.333 58.3845 177.665 57.8968 177.145 57.3097C176.624 56.7131 176.226 56.1117 175.951 55.5057H175.767V67.1818H169.716ZM175.639 48.0909C175.639 49.3883 175.819 50.5199 176.179 51.4858C176.538 52.4517 177.059 53.2045 177.741 53.7443C178.423 54.2746 179.252 54.5398 180.227 54.5398C181.212 54.5398 182.045 54.2699 182.727 53.7301C183.409 53.1809 183.925 52.4233 184.275 51.4574C184.635 50.482 184.815 49.3598 184.815 48.0909C184.815 46.8314 184.64 45.7235 184.289 44.767C183.939 43.8106 183.423 43.0625 182.741 42.5227C182.059 41.983 181.221 41.7131 180.227 41.7131C179.242 41.7131 178.409 41.9735 177.727 42.4943C177.055 43.0152 176.538 43.7538 176.179 44.7102C175.819 45.6667 175.639 46.7936 175.639 48.0909Z" fill="#FFFCFC"/>
</svg>
