<svg width="24" height="24" viewBox="0 0 24 24" fill="none" xmlns="http://www.w3.org/2000/svg">
<path d="M12.8929 8.66667C12.8929 8.51932 12.9418 8.37802 13.0288 8.27383C13.1159 8.16964 13.234 8.11111 13.3571 8.11111H17.0714C17.1946 8.11111 17.3127 8.16964 17.3997 8.27383C17.4868 8.37802 17.5357 8.51932 17.5357 8.66667C17.5357 8.81401 17.4868 8.95532 17.3997 9.0595C17.3127 9.16369 17.1946 9.22222 17.0714 9.22222H13.3571C13.234 9.22222 13.1159 9.16369 13.0288 9.0595C12.9418 8.95532 12.8929 8.81401 12.8929 8.66667ZM11.5 14.0833C11.5 14.8569 11.2432 15.5987 10.7861 16.1457C10.329 16.6927 9.70897 17 9.0625 17H5.46429C5.34115 17 5.22306 16.9415 5.13599 16.8373C5.04892 16.7331 5 16.5918 5 16.4444V7.55556C5 7.40821 5.04892 7.26691 5.13599 7.16272C5.22306 7.05853 5.34115 7 5.46429 7H8.83036C9.27441 7.00057 9.70798 7.16152 10.0743 7.4618C10.4407 7.76209 10.7227 8.18771 10.8836 8.68297C11.0444 9.17823 11.0766 9.72007 10.9759 10.2376C10.8751 10.7551 10.6462 11.2241 10.319 11.5833C10.6793 11.8427 10.9775 12.2093 11.1844 12.6474C11.3914 13.0854 11.5001 13.5801 11.5 14.0833ZM5.92857 11.1667H8.83036C9.16898 11.1667 9.49374 11.0057 9.73318 10.7192C9.97262 10.4327 10.1071 10.0441 10.1071 9.63889C10.1071 9.2337 9.97262 8.8451 9.73318 8.55859C9.49374 8.27207 9.16898 8.11111 8.83036 8.11111H5.92857V11.1667ZM10.5714 14.0833C10.5714 13.8462 10.5324 13.6114 10.4566 13.3924C10.3807 13.1733 10.2696 12.9743 10.1295 12.8066C9.98936 12.639 9.82301 12.506 9.63994 12.4152C9.45687 12.3245 9.26066 12.2778 9.0625 12.2778H5.92857V15.8889H9.0625C9.26066 15.8889 9.45687 15.8422 9.63994 15.7515C9.82301 15.6607 9.98936 15.5277 10.1295 15.3601C10.2696 15.1924 10.3807 14.9933 10.4566 14.7743C10.5324 14.5552 10.5714 14.3204 10.5714 14.0833ZM18 13.6667C18 13.814 17.9511 13.9553 17.864 14.0595C17.7769 14.1637 17.6589 14.2222 17.5357 14.2222H13.4152C13.5026 14.6276 13.6839 14.9952 13.9383 15.2826C14.1926 15.5701 14.5097 15.7657 14.8529 15.847C15.1961 15.9283 15.5515 15.8919 15.8782 15.7421C16.2049 15.5922 16.4896 15.335 16.6994 15C16.736 14.9416 16.7819 14.8925 16.8344 14.8553C16.8869 14.8182 16.945 14.7937 17.0054 14.7835C17.0658 14.7732 17.1273 14.7772 17.1863 14.7954C17.2454 14.8135 17.3009 14.8454 17.3497 14.8892C17.3985 14.9331 17.4396 14.9879 17.4706 15.0508C17.5017 15.1136 17.5221 15.1831 17.5307 15.2554C17.5393 15.3276 17.5359 15.4012 17.5207 15.4719C17.5056 15.5426 17.4789 15.609 17.4423 15.6674C17.0452 16.3004 16.4729 16.7437 15.8277 16.9179C15.1825 17.0922 14.5065 16.9861 13.9207 16.6186C13.3349 16.2511 12.8775 15.6461 12.6304 14.912C12.3832 14.1779 12.3624 13.3625 12.5717 12.6117C12.781 11.8609 13.2067 11.2237 13.7727 10.8141C14.3387 10.4046 15.008 10.2493 15.6609 10.3762C16.3138 10.5031 16.9076 10.9038 17.3362 11.5067C17.7647 12.1095 18 12.8752 18 13.6667ZM17.0134 13.1111C16.9111 12.6331 16.6788 12.2094 16.353 11.9069C16.0273 11.6043 15.6267 11.4401 15.2143 11.4401C14.8019 11.4401 14.4013 11.6043 14.0755 11.9069C13.7498 12.2094 13.5175 12.6331 13.4152 13.1111H17.0134Z" fill="#666666"/>
<rect x="1" y="1" width="22" height="22" rx="11" stroke="#666666" stroke-width="2"/>
</svg>
