<svg width="24" height="24" viewBox="0 0 24 24" fill="none" xmlns="http://www.w3.org/2000/svg">
<path d="M13.8929 8.66667C13.8929 8.51932 13.9418 8.37802 14.0288 8.27383C14.1159 8.16964 14.234 8.11111 14.3571 8.11111H18.0714C18.1946 8.11111 18.3127 8.16964 18.3997 8.27383C18.4868 8.37802 18.5357 8.51932 18.5357 8.66667C18.5357 8.81401 18.4868 8.95532 18.3997 9.0595C18.3127 9.16369 18.1946 9.22222 18.0714 9.22222H14.3571C14.234 9.22222 14.1159 9.16369 14.0288 9.0595C13.9418 8.95532 13.8929 8.81401 13.8929 8.66667ZM12.5 14.0833C12.5 14.8569 12.2432 15.5987 11.7861 16.1457C11.329 16.6927 10.709 17 10.0625 17H6.46429C6.34115 17 6.22306 16.9415 6.13599 16.8373C6.04892 16.7331 6 16.5918 6 16.4444V7.55556C6 7.40821 6.04892 7.26691 6.13599 7.16272C6.22306 7.05853 6.34115 7 6.46429 7H9.83036C10.2744 7.00057 10.708 7.16152 11.0743 7.4618C11.4407 7.76209 11.7227 8.18771 11.8836 8.68297C12.0444 9.17823 12.0766 9.72007 11.9759 10.2376C11.8751 10.7551 11.6462 11.2241 11.319 11.5833C11.6793 11.8427 11.9775 12.2093 12.1844 12.6474C12.3914 13.0854 12.5001 13.5801 12.5 14.0833ZM6.92857 11.1667H9.83036C10.169 11.1667 10.4937 11.0057 10.7332 10.7192C10.9726 10.4327 11.1071 10.0441 11.1071 9.63889C11.1071 9.2337 10.9726 8.8451 10.7332 8.55859C10.4937 8.27207 10.169 8.11111 9.83036 8.11111H6.92857V11.1667ZM11.5714 14.0833C11.5714 13.8462 11.5324 13.6114 11.4566 13.3924C11.3807 13.1733 11.2696 12.9743 11.1295 12.8066C10.9894 12.639 10.823 12.506 10.6399 12.4152C10.4569 12.3245 10.2607 12.2778 10.0625 12.2778H6.92857V15.8889H10.0625C10.2607 15.8889 10.4569 15.8422 10.6399 15.7515C10.823 15.6607 10.9894 15.5277 11.1295 15.3601C11.2696 15.1924 11.3807 14.9933 11.4566 14.7743C11.5324 14.5552 11.5714 14.3204 11.5714 14.0833ZM19 13.6667C19 13.814 18.9511 13.9553 18.864 14.0595C18.7769 14.1637 18.6589 14.2222 18.5357 14.2222H14.4152C14.5026 14.6276 14.6839 14.9952 14.9383 15.2826C15.1926 15.5701 15.5097 15.7657 15.8529 15.847C16.1961 15.9283 16.5515 15.8919 16.8782 15.7421C17.2049 15.5922 17.4896 15.335 17.6994 15C17.736 14.9416 17.7819 14.8925 17.8344 14.8553C17.8869 14.8182 17.945 14.7937 18.0054 14.7835C18.0658 14.7732 18.1273 14.7772 18.1863 14.7954C18.2454 14.8135 18.3009 14.8454 18.3497 14.8892C18.3985 14.9331 18.4396 14.9879 18.4706 15.0508C18.5017 15.1136 18.5221 15.1831 18.5307 15.2554C18.5393 15.3276 18.5359 15.4012 18.5207 15.4719C18.5056 15.5426 18.4789 15.609 18.4423 15.6674C18.0452 16.3004 17.4729 16.7437 16.8277 16.9179C16.1825 17.0922 15.5065 16.9861 14.9207 16.6186C14.3349 16.2511 13.8775 15.6461 13.6304 14.912C13.3832 14.1779 13.3624 13.3625 13.5717 12.6117C13.781 11.8609 14.2067 11.2237 14.7727 10.8141C15.3387 10.4046 16.008 10.2493 16.6609 10.3762C17.3138 10.5031 17.9076 10.9038 18.3362 11.5067C18.7647 12.1095 19 12.8752 19 13.6667ZM18.0134 13.1111C17.9111 12.6331 17.6788 12.2094 17.353 11.9069C17.0273 11.6043 16.6267 11.4401 16.2143 11.4401C15.8019 11.4401 15.4013 11.6043 15.0755 11.9069C14.7498 12.2094 14.5175 12.6331 14.4152 13.1111H18.0134Z" fill="#262626"/>
<rect x="1" y="1" width="22" height="22" rx="11" stroke="#262626" stroke-width="2"/>
</svg>
